<?xml version="1.0" encoding="UTF-8" standalone="no"?>
<!-- Created with Inkscape (http://www.inkscape.org/) -->

<svg
   width="1024"
   height="1024"
   viewBox="0 0 278.29665 278.29664"
   version="1.1"
   id="svg1"
   xmlns="http://www.w3.org/2000/svg"
   xmlns:svg="http://www.w3.org/2000/svg">
  <defs
     id="defs1" />
  <g
     id="layer1" />
  <path
     id="rect5"
     style="fill:#ffffff;stroke-width:0.513588;stroke-dashoffset:22.6771"
     d="M 10.271781,0 H 151.97561 C 157.66617,0 162.24738,4.5812118 162.24738,10.271775 V 40.048244 H 5.8000469e-6 V 10.271775 C 5.8000469e-6,4.5812118 4.5812176,0 10.271781,0 Z" />
  <path
     id="rect6"
     style="fill:#ffffff;stroke-width:0.513588;stroke-dashoffset:22.6771"
     d="M 1.5830994e-7,59.562103 H 278.29663 V 99.610348 H 1.5830994e-7 Z" />
  <path
     id="rect7"
     style="fill:#ffffff;stroke-width:0.513588;stroke-dashoffset:22.6771"
     d="M 5.8000469e-6,119.12417 H 217.40958 V 159.17241 H 5.8000469e-6 Z" />
  <path
     id="rect9"
     style="fill:#ffffff;stroke-width:0.513588;stroke-dashoffset:22.6771"
     d="M 5.8000469e-6,178.68626 H 162.24738 V 218.73451 H 5.8000469e-6 Z" />
  <path
     id="rect10"
     style="fill:#ffffff;stroke-width:0.513588;stroke-dashoffset:22.6771"
     d="M 162.24738,238.2484 V 268.02487 C 162.24738,273.71543 157.66617,278.29664 151.97561,278.29664 H 10.271781 C 4.5812176,278.29664 5.8000469e-6,273.71543 5.8000469e-6,268.02487 V 238.2484 Z" />
  <text
     xml:space="preserve"
     style="font-style:normal;font-variant:normal;font-weight:normal;font-stretch:condensed;font-size:217.419px;line-height:1;font-family:'Liberation Sans Narrow';-inkscape-font-specification:'Liberation Sans Narrow Condensed';text-align:start;text-decoration-color:#000000;letter-spacing:0px;word-spacing:0px;writing-mode:lr-tb;direction:ltr;text-anchor:start;opacity:1;fill:#ffffff;fill-opacity:1;stroke-width:0.513588;stroke-dashoffset:22.6771"
     x="413.79968"
     y="598.17987"
     id="text2"><tspan
       id="tspan2"
       style="fill:#ffffff;stroke-width:0.513589"
       x="413.79968"
       y="598.17987" /></text>
</svg>
